<?xml version="1.0" standalone="no"?>
<!DOCTYPE svg PUBLIC "-//W3C//DTD SVG 20010904//EN"
 "https://www.w3.org/TR/2001/REC-SVG-20010904/DTD/svg10.dtd">
<svg version="1.0" xmlns="https://www.w3.org/2000/svg"
 width="500.000000pt" height="500.000000pt" viewBox="0 0 500.000000 500.000000"
 preserveAspectRatio="xMidYMid meet">
<metadata>
Created by potrace 1.14, written by Peter Selinger 2001-2017
</metadata>
<g transform="translate(0.000000,500.000000) scale(0.100000,-0.100000)"
fill="#000000" stroke="none">
<path d="M1704 3975 c-16 -13 -17 -16 -4 -25 8 -5 24 -10 35 -10 11 -1 -6 -13
-40 -29 -67 -31 -117 -82 -149 -150 -31 -68 -30 -227 3 -293 24 -51 86 -112
102 -103 5 4 9 2 9 -4 0 -6 7 -7 17 -4 9 4 14 2 11 -3 -4 -5 31 -9 82 -9 48 0
84 3 78 6 -5 4 2 9 17 13 14 4 31 4 37 0 6 -4 8 -3 5 3 -4 6 7 16 23 23 17 7
49 30 71 52 75 72 105 184 74 268 -9 25 -21 59 -26 77 -13 42 -100 137 -156
169 -54 32 -158 42 -189 19z m146 -15 c22 -11 40 -23 40 -25 0 -5 -79 32 -89
41 -11 10 14 2 49 -16z m35 -141 c48 -42 84 -106 91 -160 12 -93 -72 -182
-182 -195 -97 -12 -144 37 -144 149 0 97 45 166 148 227 27 15 -4 31 -55 28
-49 -4 -55 4 -15 18 22 9 36 6 74 -13 26 -12 63 -37 83 -54z"/>
<path d="M3093 3983 c-22 -8 -14 -31 15 -41 l27 -10 -30 -11 c-113 -43 -172
-115 -195 -238 -12 -70 -2 -160 26 -219 23 -49 81 -104 102 -97 9 4 13 2 9 -4
-5 -7 1 -9 15 -5 11 3 19 1 16 -4 -4 -5 30 -9 77 -9 47 0 81 4 77 9 -3 5 5 7
17 3 13 -3 20 -3 17 0 -3 3 17 17 45 30 55 28 127 105 146 155 19 53 15 147
-7 197 -11 24 -18 46 -16 49 9 8 -56 92 -99 126 -48 39 -117 76 -142 76 -11
-1 -5 -6 15 -15 17 -8 32 -16 32 -19 0 -3 -21 4 -46 14 -45 20 -76 24 -101 13z
m127 -99 c0 -2 -13 2 -30 11 -16 9 -30 18 -30 21 0 2 14 -2 30 -11 17 -9 30
-18 30 -21z m59 -78 c132 -124 96 -294 -71 -336 -96 -24 -160 15 -174 105 -14
94 28 184 109 237 26 17 46 36 44 42 -2 6 -26 11 -55 11 -29 -1 -52 1 -52 3 0
1 14 9 31 16 28 12 36 11 78 -12 25 -14 66 -43 90 -66z m82 -249 c-10 -9 -11
-8 -5 6 3 10 9 15 12 12 3 -3 0 -11 -7 -18z"/>
<path d="M1743 3333 c15 -2 37 -2 50 0 12 2 0 4 -28 4 -27 0 -38 -2 -22 -4z"/>
<path d="M3133 3333 c15 -2 37 -2 50 0 12 2 0 4 -28 4 -27 0 -38 -2 -22 -4z"/>
<path d="M2292 2847 c-6 -7 -20 -33 -31 -57 l-20 -45 0 43 c-1 28 -5 42 -15
42 -20 0 -69 -254 -69 -361 1 -96 22 -185 58 -240 28 -42 110 -93 175 -108 61
-14 215 -21 198 -9 -8 6 -3 7 15 3 16 -3 26 -2 23 3 -3 5 6 14 20 21 15 6 23
7 19 1 -12 -20 6 -9 46 27 84 76 122 209 125 433 l1 155 -8 -159 c-4 -87 -10
-161 -14 -164 -3 -3 -4 82 -3 189 1 107 -1 200 -5 207 -20 30 -47 6 -47 -43 0
-15 -7 -25 -21 -28 -21 -6 -21 -9 -15 -124 12 -192 -27 -322 -112 -378 -101
-67 -257 -26 -302 79 -31 70 -33 130 -11 279 22 148 26 214 12 235 -6 11 -10
10 -19 -1z m515 -459 c-3 -7 -5 -2 -5 12 0 14 2 19 5 13 2 -7 2 -19 0 -25z
m-10 -40 c-3 -8 -6 -5 -6 6 -1 11 2 17 5 13 3 -3 4 -12 1 -19z m-16 -45 c-12
-20 -14 -14 -5 12 4 9 9 14 11 11 3 -2 0 -13 -6 -23z"/>
<path d="M2349 1420 c-42 -4 -82 -11 -88 -14 -17 -11 -13 -35 8 -48 16 -10 17
-14 5 -22 -9 -8 -11 -16 -4 -26 6 -11 27 -14 77 -13 265 7 289 6 338 -12 36
-14 50 -16 53 -7 2 7 10 12 17 12 21 0 27 16 19 55 -5 30 -11 36 -43 44 -107
28 -272 41 -382 31z"/>
<path d="M2227 1190 c-15 -22 -13 -50 4 -50 5 0 9 -8 9 -19 0 -16 11 -19 88
-25 218 -16 348 -18 390 -7 46 13 55 34 20 52 -19 10 -19 12 -5 21 55 30 -37
57 -151 44 -86 -11 -98 -11 -223 -2 -113 7 -117 7 -132 -14z"/>
</g>
</svg>
